<svg width="257" height="40" viewBox="0 0 257 40" fill="none" xmlns="http://www.w3.org/2000/svg">
<path fill-rule="evenodd" clip-rule="evenodd" d="M4 4C4 1.79086 2.20914 0 0 0V40C2.20914 40 4 38.2091 4 36V4Z" fill="#41F6D7"/>
<path d="M24.084 10.1C23.9907 9.89467 23.9813 9.72667 24.056 9.596C24.1493 9.46533 24.2987 9.4 24.504 9.4H27.864C28.144 9.4 28.3773 9.46533 28.564 9.596C28.7507 9.72667 28.8907 9.89467 28.984 10.1L33.324 19.48H33.604L37.384 10.1C37.5707 9.63333 37.944 9.4 38.504 9.4H41.864C42.0693 9.4 42.2093 9.46533 42.284 9.596C42.3773 9.72667 42.3773 9.89467 42.284 10.1L35.844 24.66C35.5267 25.388 35.172 26.0413 34.78 26.62C34.4067 27.1987 33.9587 27.684 33.436 28.076C32.9133 28.468 32.316 28.7667 31.644 28.972C30.972 29.1773 30.1787 29.28 29.264 29.28H28.144C27.6773 29.28 27.444 29.0467 27.444 28.58V26.06C27.444 25.5933 27.6773 25.36 28.144 25.36H29.264C29.7493 25.36 30.132 25.2387 30.412 24.996C30.692 24.7347 30.8693 24.3893 30.944 23.96L24.084 10.1ZM54.5128 19.9C54.5128 20.3667 54.2795 20.6 53.8128 20.6H51.2928C50.8261 20.6 50.5928 20.3667 50.5928 19.9V19.34C50.5928 18.9107 50.4621 18.5747 50.2008 18.332C49.9581 18.0707 49.6221 17.94 49.1928 17.94H46.5328C46.1035 17.94 45.7581 18.0707 45.4968 18.332C45.2541 18.5747 45.1328 18.9107 45.1328 19.34V24.38C45.1328 24.8093 45.2541 25.1547 45.4968 25.416C45.7581 25.6587 46.1035 25.78 46.5328 25.78H49.1928C49.6221 25.78 49.9581 25.6587 50.2008 25.416C50.4621 25.1547 50.5928 24.8093 50.5928 24.38V23.82C50.5928 23.3533 50.8261 23.12 51.2928 23.12H53.8128C54.2795 23.12 54.5128 23.3533 54.5128 23.82V24.94C54.5128 26.34 54.1395 27.4133 53.3928 28.16C52.6461 28.9067 51.5728 29.28 50.1728 29.28H45.5528C44.1528 29.28 43.0795 28.9067 42.3328 28.16C41.5861 27.4133 41.2128 26.34 41.2128 24.94V18.78C41.2128 17.38 41.5861 16.3067 42.3328 15.56C43.0795 14.8133 44.1528 14.44 45.5528 14.44H50.1728C51.5728 14.44 52.6461 14.8133 53.3928 15.56C54.1395 16.3067 54.5128 17.38 54.5128 18.78V19.9ZM61.7517 25.22C61.4904 26.564 60.9771 27.5813 60.2117 28.272C59.4464 28.944 58.3264 29.28 56.8517 29.28H56.0117C55.5451 29.28 55.3117 29.0467 55.3117 28.58V26.48C55.3117 26.0133 55.5451 25.78 56.0117 25.78H56.4317C56.8611 25.78 57.2064 25.6587 57.4677 25.416C57.7291 25.1733 57.8971 24.8747 57.9717 24.52L59.9317 15.42C60.0251 14.9533 60.3517 14.72 60.9117 14.72H69.4517C69.9184 14.72 70.1517 14.9533 70.1517 15.42V28.3C70.1517 28.7667 69.9184 29 69.4517 29H66.9317C66.4651 29 66.2317 28.7667 66.2317 28.3V18.22H63.1517L61.7517 25.22ZM81.3913 15.42C81.466 15.2147 81.578 15.0467 81.7273 14.916C81.8767 14.7853 82.0913 14.72 82.3713 14.72H85.1713C85.638 14.72 85.778 14.9533 85.5913 15.42L80.2713 29.84C79.786 31.1653 79.0673 32.2387 78.1153 33.06C77.1633 33.9 75.922 34.32 74.3913 34.32H73.5513C73.0847 34.32 72.8513 34.0867 72.8513 33.62V31.52C72.8513 31.0533 73.0847 30.82 73.5513 30.82H74.3913C74.8767 30.82 75.2593 30.7173 75.5393 30.512C75.8193 30.3253 76.034 30.1013 76.1833 29.84C76.3513 29.56 76.454 29.2333 76.4913 28.86L71.3113 15.42C71.1247 14.9533 71.2647 14.72 71.7313 14.72H74.5313C74.8113 14.72 75.026 14.7853 75.1753 14.916C75.3247 15.0467 75.4367 15.2147 75.5113 15.42L78.4513 23.68H78.7313L81.3913 15.42ZM86.7448 15.42C86.7448 14.9533 86.9782 14.72 87.4448 14.72H96.9648C97.4315 14.72 97.6648 14.9533 97.6648 15.42V17.52C97.6648 17.9867 97.4315 18.22 96.9648 18.22H90.6648V28.3C90.6648 28.7667 90.4315 29 89.9648 29H87.4448C86.9782 29 86.7448 28.7667 86.7448 28.3V15.42ZM107.984 15.42C108.133 15.2147 108.282 15.0467 108.432 14.916C108.6 14.7853 108.824 14.72 109.104 14.72H111.764C112.23 14.72 112.464 14.9533 112.464 15.42V28.3C112.464 28.7667 112.23 29 111.764 29H109.244C108.777 29 108.544 28.7667 108.544 28.3V20.88H108.264L103.504 28.3C103.354 28.5053 103.196 28.6733 103.028 28.804C102.878 28.9347 102.664 29 102.384 29H99.7238C99.2571 29 99.0238 28.7667 99.0238 28.3V15.42C99.0238 14.9533 99.2571 14.72 99.7238 14.72H102.244C102.71 14.72 102.944 14.9533 102.944 15.42V22.84H103.224L107.984 15.42ZM129.452 15.42C129.601 15.2147 129.75 15.0467 129.9 14.916C130.068 14.7853 130.292 14.72 130.572 14.72H133.232C133.698 14.72 133.932 14.9533 133.932 15.42V28.3C133.932 28.7667 133.698 29 133.232 29H130.712C130.245 29 130.012 28.7667 130.012 28.3V20.88H129.732L124.972 28.3C124.822 28.5053 124.664 28.6733 124.496 28.804C124.346 28.9347 124.132 29 123.852 29H121.192C120.725 29 120.492 28.7667 120.492 28.3V15.42C120.492 14.9533 120.725 14.72 121.192 14.72H123.712C124.178 14.72 124.412 14.9533 124.412 15.42V22.84H124.692L129.452 15.42ZM155.26 19.9C155.26 20.3667 155.026 20.6 154.56 20.6H152.04C151.573 20.6 151.34 20.3667 151.34 19.9V19.34C151.34 18.9107 151.209 18.5747 150.948 18.332C150.705 18.0707 150.369 17.94 149.94 17.94H147.28C146.85 17.94 146.505 18.0707 146.244 18.332C146.001 18.5747 145.88 18.9107 145.88 19.34V24.38C145.88 24.8093 146.001 25.1547 146.244 25.416C146.505 25.6587 146.85 25.78 147.28 25.78H149.94C150.369 25.78 150.705 25.6587 150.948 25.416C151.209 25.1547 151.34 24.8093 151.34 24.38V23.82C151.34 23.3533 151.573 23.12 152.04 23.12H154.56C155.026 23.12 155.26 23.3533 155.26 23.82V24.94C155.26 26.34 154.886 27.4133 154.14 28.16C153.393 28.9067 152.32 29.28 150.92 29.28H146.3C144.9 29.28 143.826 28.9067 143.08 28.16C142.333 27.4133 141.96 26.34 141.96 24.94V18.78C141.96 17.38 142.333 16.3067 143.08 15.56C143.826 14.8133 144.9 14.44 146.3 14.44H150.92C152.32 14.44 153.393 14.8133 154.14 15.56C154.886 16.3067 155.26 17.38 155.26 18.78V19.9ZM166.139 25.78C166.699 25.78 166.979 25.5 166.979 24.94C166.979 24.4733 167.212 24.24 167.679 24.24H170.199C170.665 24.24 170.899 24.4733 170.899 24.94C170.899 26.34 170.525 27.4133 169.779 28.16C169.032 28.9067 167.959 29.28 166.559 29.28H162.079C160.679 29.28 159.605 28.9067 158.859 28.16C158.112 27.4133 157.739 26.34 157.739 24.94V18.78C157.739 17.38 158.112 16.3067 158.859 15.56C159.605 14.8133 160.679 14.44 162.079 14.44H166.699C168.099 14.44 169.172 14.8133 169.919 15.56C170.665 16.3067 171.039 17.38 171.039 18.78V22.42C171.039 22.8867 170.805 23.12 170.339 23.12H161.659V24.38C161.659 24.8093 161.78 25.1547 162.023 25.416C162.284 25.6587 162.629 25.78 163.059 25.78H166.139ZM161.659 20.04H167.119V19.2C167.119 18.7707 166.988 18.4347 166.727 18.192C166.484 17.9307 166.148 17.8 165.719 17.8H163.059C162.629 17.8 162.284 17.9307 162.023 18.192C161.78 18.4347 161.659 18.7707 161.659 19.2V20.04ZM182.751 14.44C184.151 14.44 185.224 14.8133 185.971 15.56C186.718 16.3067 187.091 17.38 187.091 18.78V24.66C187.091 26.06 186.718 27.1333 185.971 27.88C185.224 28.6267 184.151 29 182.751 29H177.711V33.62C177.711 34.0867 177.478 34.32 177.011 34.32H174.491C174.024 34.32 173.791 34.0867 173.791 33.62V15.42C173.791 14.9533 174.024 14.72 174.491 14.72H177.011C177.478 14.72 177.711 14.9533 177.711 15.42V16.12H177.991C178.047 15.8027 178.178 15.5227 178.383 15.28C178.551 15.0747 178.784 14.888 179.083 14.72C179.4 14.5333 179.83 14.44 180.371 14.44H182.751ZM181.771 25.5C182.2 25.5 182.536 25.3787 182.779 25.136C183.04 24.8747 183.171 24.5293 183.171 24.1V19.34C183.171 18.9107 183.04 18.5747 182.779 18.332C182.536 18.0707 182.2 17.94 181.771 17.94H179.391C178.906 17.94 178.504 18.0987 178.187 18.416C177.87 18.7333 177.711 19.1347 177.711 19.62V25.5H181.771ZM197.683 14.72C199.083 14.72 200.157 15.084 200.903 15.812C201.65 16.5213 202.023 17.5107 202.023 18.78C202.023 19.2653 201.939 19.6667 201.771 19.984C201.622 20.3013 201.445 20.5627 201.239 20.768C201.015 20.992 200.763 21.1693 200.483 21.3V21.58C200.931 21.692 201.323 21.8787 201.659 22.14C201.958 22.364 202.229 22.6907 202.471 23.12C202.733 23.5307 202.863 24.0907 202.863 24.8C202.863 26.144 202.49 27.18 201.743 27.908C200.997 28.636 199.923 29 198.523 29H190.543C190.077 29 189.843 28.7667 189.843 28.3V15.42C189.843 14.9533 190.077 14.72 190.543 14.72H197.683ZM198.943 24.52C198.943 23.7733 198.57 23.4 197.823 23.4H193.763V25.64H197.823C198.57 25.64 198.943 25.2667 198.943 24.52ZM198.103 19.06C198.103 18.78 198.01 18.5467 197.823 18.36C197.637 18.1733 197.403 18.08 197.123 18.08H193.763V20.04H197.123C197.403 20.04 197.637 19.9467 197.823 19.76C198.01 19.5733 198.103 19.34 198.103 19.06ZM214.035 15.42C214.185 15.2147 214.334 15.0467 214.483 14.916C214.651 14.7853 214.875 14.72 215.155 14.72H217.815C218.282 14.72 218.515 14.9533 218.515 15.42V28.3C218.515 28.7667 218.282 29 217.815 29H215.295C214.829 29 214.595 28.7667 214.595 28.3V20.88H214.315L209.555 28.3C209.406 28.5053 209.247 28.6733 209.079 28.804C208.93 28.9347 208.715 29 208.435 29H205.775C205.309 29 205.075 28.7667 205.075 28.3V15.42C205.075 14.9533 205.309 14.72 205.775 14.72H208.295C208.762 14.72 208.995 14.9533 208.995 15.42V22.84H209.275L214.035 15.42ZM234.564 19.9C234.564 20.3667 234.331 20.6 233.864 20.6H231.344C230.878 20.6 230.644 20.3667 230.644 19.9V19.34C230.644 18.9107 230.514 18.5747 230.252 18.332C230.01 18.0707 229.674 17.94 229.244 17.94H226.584C226.155 17.94 225.81 18.0707 225.548 18.332C225.306 18.5747 225.184 18.9107 225.184 19.34V24.38C225.184 24.8093 225.306 25.1547 225.548 25.416C225.81 25.6587 226.155 25.78 226.584 25.78H229.244C229.674 25.78 230.01 25.6587 230.252 25.416C230.514 25.1547 230.644 24.8093 230.644 24.38V23.82C230.644 23.3533 230.878 23.12 231.344 23.12H233.864C234.331 23.12 234.564 23.3533 234.564 23.82V24.94C234.564 26.34 234.191 27.4133 233.444 28.16C232.698 28.9067 231.624 29.28 230.224 29.28H225.604C224.204 29.28 223.131 28.9067 222.384 28.16C221.638 27.4133 221.264 26.34 221.264 24.94V18.78C221.264 17.38 221.638 16.3067 222.384 15.56C223.131 14.8133 224.204 14.44 225.604 14.44H230.224C231.624 14.44 232.698 14.8133 233.444 15.56C234.191 16.3067 234.564 17.38 234.564 18.78V19.9ZM240.263 14.72C240.73 14.72 240.963 14.9533 240.963 15.42V18.92H244.743C246.143 18.92 247.217 19.2933 247.963 20.04C248.71 20.7867 249.083 21.86 249.083 23.26V24.66C249.083 26.06 248.71 27.1333 247.963 27.88C247.217 28.6267 246.143 29 244.743 29H237.743C237.277 29 237.043 28.7667 237.043 28.3V15.42C237.043 14.9533 237.277 14.72 237.743 14.72H240.263ZM245.163 23.68C245.163 23.2507 245.033 22.9147 244.771 22.672C244.529 22.4107 244.193 22.28 243.763 22.28H240.963V25.64H243.763C244.193 25.64 244.529 25.5187 244.771 25.276C245.033 25.0147 245.163 24.6693 245.163 24.24V23.68ZM253.983 14.72C254.45 14.72 254.683 14.9533 254.683 15.42V28.3C254.683 28.7667 254.45 29 253.983 29H251.463C250.997 29 250.763 28.7667 250.763 28.3V15.42C250.763 14.9533 250.997 14.72 251.463 14.72H253.983Z" fill="#1B1C21"/>
</svg>
